<?xml version="1.0" ?>
<!-- Uploaded to: SVG Repo, www.svgrepo.com, Generator: SVG Repo Mixer Tools -->
<svg width="800px" height="800px" viewBox="0 0 64 64" xmlns="http://www.w3.org/2000/svg">
<defs>
<style>.cls-1,.cls-2{fill:none;stroke:#000000;stroke-linejoin:round;stroke-width:2px;}.cls-1{stroke-linecap:round;}</style>
</defs>
<g id="cart-remove">
<circle cx="50.0821" cy="8.0978" r="1.0691"/>
<line class="cls-1" x1="12.5858" x2="15.4142" y1="6.0858" y2="8.9142"/>
<line class="cls-1" x1="15.4142" x2="12.5858" y1="6.0858" y2="8.9142"/>
<circle class="cls-1" cx="35" cy="9" r="2"/>
<circle cx="22.0821" cy="13.0978" r="1.0691"/>
<path class="cls-1" d="M58.6548,18H5.3452A1.2486,1.2486,0,0,0,4,19.121V55.6547A1.3453,1.3453,0,0,0,5.3452,57h53.31A1.3453,1.3453,0,0,0,60,55.6547V19.121A1.2486,1.2486,0,0,0,58.6548,18Z"/>
<circle cx="8" cy="21" r="1"/>
<circle cx="11" cy="21" r="1"/>
<circle cx="14" cy="21" r="1"/>
<line class="cls-1" x1="23.1629" x2="38.8341" y1="34" y2="34"/>
<polyline class="cls-1" points="16 30 22 30 23 34 25 44 42 44 42.974 39.128"/>
<path class="cls-1" d="M42,47H26.5A1.5,1.5,0,0,1,25,45.5h0A1.5,1.5,0,0,1,26.5,44h4.5728"/>
<circle class="cls-1" cx="39.5" cy="49.5" r="1.5"/>
<circle class="cls-1" cx="27.5" cy="49.5" r="1.5"/>
<circle class="cls-1" cx="44" cy="34" r="5"/>
<line class="cls-1" x1="42" x2="46" y1="34" y2="34"/>
<line class="cls-2" x1="4" x2="60" y1="24" y2="24"/>
</g>
</svg>